<mxfile host="app.diagrams.net" modified="2021-07-26T02:23:27.201Z" agent="5.0 (Windows NT 10.0; Win64; x64) AppleWebKit/537.36 (KHTML, like Gecko) Chrome/91.0.4472.77 Safari/537.36" etag="M_HajZuY603VqBvMZXRU" version="14.9.2" type="github">
  <diagram id="qx9blqDthegFAYrQhPeh" name="Page-1">
    <mxGraphModel dx="782" dy="706" grid="1" gridSize="10" guides="1" tooltips="1" connect="1" arrows="1" fold="1" page="1" pageScale="1" pageWidth="827" pageHeight="1169" math="0" shadow="0">
      <root>
        <mxCell id="0" />
        <mxCell id="1" parent="0" />
        <mxCell id="cQeTbaNnoofj0iiBKwML-1" value="前台：html/css/jsp&amp;nbsp; &amp;nbsp; &amp;nbsp; &amp;nbsp; &amp;nbsp; &amp;nbsp; &amp;nbsp;后台：Servlet（springMVC）" style="rounded=0;whiteSpace=wrap;html=1;" parent="1" vertex="1">
          <mxGeometry x="170" y="130" width="340" height="60" as="geometry" />
        </mxCell>
        <mxCell id="cQeTbaNnoofj0iiBKwML-2" value="" style="rounded=0;whiteSpace=wrap;html=1;" parent="1" vertex="1">
          <mxGeometry x="255" y="270" width="190" height="60" as="geometry" />
        </mxCell>
        <mxCell id="cQeTbaNnoofj0iiBKwML-3" value="&lt;b&gt;&lt;font style=&quot;font-size: 18px&quot;&gt;JDBC----&amp;gt; MyBatis&lt;/font&gt;&lt;/b&gt;" style="rounded=0;whiteSpace=wrap;html=1;" parent="1" vertex="1">
          <mxGeometry x="250" y="430" width="180" height="60" as="geometry" />
        </mxCell>
        <mxCell id="cQeTbaNnoofj0iiBKwML-4" value="&lt;b&gt;&lt;font style=&quot;font-size: 18px&quot;&gt;DB&lt;/font&gt;&lt;/b&gt;" style="shape=cylinder3;whiteSpace=wrap;html=1;boundedLbl=1;backgroundOutline=1;size=15;" parent="1" vertex="1">
          <mxGeometry x="540" y="380" width="60" height="80" as="geometry" />
        </mxCell>
        <mxCell id="cQeTbaNnoofj0iiBKwML-5" value="" style="endArrow=classic;html=1;exitX=0.5;exitY=1;exitDx=0;exitDy=0;entryX=0.458;entryY=-0.023;entryDx=0;entryDy=0;entryPerimeter=0;" parent="1" source="cQeTbaNnoofj0iiBKwML-1" target="cQeTbaNnoofj0iiBKwML-2" edge="1">
          <mxGeometry width="50" height="50" relative="1" as="geometry">
            <mxPoint x="390" y="300" as="sourcePoint" />
            <mxPoint x="440" y="250" as="targetPoint" />
          </mxGeometry>
        </mxCell>
        <mxCell id="cQeTbaNnoofj0iiBKwML-6" value="" style="endArrow=classic;html=1;exitX=0.5;exitY=1;exitDx=0;exitDy=0;entryX=0.56;entryY=-0.01;entryDx=0;entryDy=0;entryPerimeter=0;" parent="1" source="cQeTbaNnoofj0iiBKwML-2" target="cQeTbaNnoofj0iiBKwML-3" edge="1">
          <mxGeometry width="50" height="50" relative="1" as="geometry">
            <mxPoint x="390" y="300" as="sourcePoint" />
            <mxPoint x="440" y="250" as="targetPoint" />
          </mxGeometry>
        </mxCell>
        <mxCell id="cQeTbaNnoofj0iiBKwML-7" value="" style="endArrow=classic;html=1;exitX=1;exitY=0.5;exitDx=0;exitDy=0;entryX=0;entryY=0;entryDx=0;entryDy=52.5;entryPerimeter=0;" parent="1" source="cQeTbaNnoofj0iiBKwML-3" target="cQeTbaNnoofj0iiBKwML-4" edge="1">
          <mxGeometry width="50" height="50" relative="1" as="geometry">
            <mxPoint x="390" y="300" as="sourcePoint" />
            <mxPoint x="440" y="250" as="targetPoint" />
          </mxGeometry>
        </mxCell>
        <mxCell id="cQeTbaNnoofj0iiBKwML-8" value="&lt;b&gt;&lt;font style=&quot;font-size: 18px&quot;&gt;UI&lt;/font&gt;&lt;/b&gt;" style="text;html=1;strokeColor=none;fillColor=none;align=center;verticalAlign=middle;whiteSpace=wrap;rounded=0;" parent="1" vertex="1">
          <mxGeometry x="530" y="160" width="40" height="20" as="geometry" />
        </mxCell>
        <mxCell id="cQeTbaNnoofj0iiBKwML-9" value="&lt;b&gt;&lt;font style=&quot;font-size: 18px&quot;&gt;Service&lt;/font&gt;&lt;/b&gt;" style="text;html=1;strokeColor=none;fillColor=none;align=center;verticalAlign=middle;whiteSpace=wrap;rounded=0;" parent="1" vertex="1">
          <mxGeometry x="470" y="290" width="40" height="20" as="geometry" />
        </mxCell>
        <mxCell id="cQeTbaNnoofj0iiBKwML-10" value="&lt;b&gt;&lt;font style=&quot;font-size: 18px&quot;&gt;Dao&lt;/font&gt;&lt;/b&gt;" style="text;html=1;strokeColor=none;fillColor=none;align=center;verticalAlign=middle;whiteSpace=wrap;rounded=0;" parent="1" vertex="1">
          <mxGeometry x="450" y="480" width="40" height="20" as="geometry" />
        </mxCell>
        <mxCell id="U2kwxfmfY2fW6spWQZNl-3" value="" style="curved=1;endArrow=classic;html=1;" parent="1" edge="1">
          <mxGeometry width="50" height="50" relative="1" as="geometry">
            <mxPoint x="230" y="120" as="sourcePoint" />
            <mxPoint x="400" y="120" as="targetPoint" />
            <Array as="points">
              <mxPoint x="240" y="70" />
              <mxPoint x="260" y="60" />
            </Array>
          </mxGeometry>
        </mxCell>
        <mxCell id="Az0SRixJ8CmFnczLDIk1-1" value="org.xxx.servlet&lt;br&gt;org.xxx.controller&lt;br&gt;org.xxx.handler&lt;br&gt;org.xxx.action" style="text;html=1;strokeColor=none;fillColor=none;align=center;verticalAlign=middle;whiteSpace=wrap;rounded=0;" vertex="1" parent="1">
          <mxGeometry x="420" y="200" width="40" height="20" as="geometry" />
        </mxCell>
      </root>
    </mxGraphModel>
  </diagram>
</mxfile>
